:FULLY-SPECIFIED
:FORCE-ALL-JOINTS-BE-3DOF
:DEGREES
645
root 5.58842 16.4143 -2.73054 15.8684 11.2947 -0.547877
lfemur -16.165 22.5261 -26.9147
ltibia 35.6998 -0 0
lfoot -36.03 12.2709 -0.000803118
ltoes 22.2118 -0 0
rfemur -57.8949 -27.5649 31.2042
rtibia 66.599 -0 0
rfoot -4.7007 -2.7768 0.106173
rtoes 1.23545 -0 0
lowerback -0.744659 -3.8452 -5.1017
upperback -2.0071 -5.13788 0.322213
thorax -1.17356 -2.50052 3.16958
lowerneck -9.85798 -7.36668 -0.171999
upperneck 5.85571 -10.4224 6.36462
head 3.91007 -4.84794 1.42328
lclavicle -3.32458e-14 -1.31051e-14 6.06778e-31
lhumerus -38.2824 -67.8562 119.884
lradius 72.5401 -0 0
lwrist 23.9579 0 0
lhand -6.1885 2.55732 0.0371601
lfingers 7.12502 -0 0
lthumb 19.6501 31.5713 0.0322841
rclavicle -3.32458e-14 -1.31051e-14 6.06778e-31
rhumerus -32.3763 -1.69116 -73.8634
rradius 69.3896 -0 0
rwrist -23.5068 0 0
rhand -29.5728 -43.488 -0.0231615
rfingers 7.12502 -0 0
rthumb -2.90489 -73.4475 -0.0223819
646
root 5.57276 16.3803 -2.66191 16.3292 10.0077 -0.314127
lfemur -16.4469 23.035 -27.3794
ltibia 35.9905 -0 0
lfoot -36.2851 12.2779 -0.000664689
ltoes 21.7759 -0 0
rfemur -58.9877 -28.233 32.3675
rtibia 66.9248 -0 0
rfoot -5.55853 -3.05147 0.087859
rtoes 1.64799 -0 0
lowerback -0.708766 -3.88967 -5.2853
upperback -1.96079 -5.20055 0.150683
thorax -1.14063 -2.5321 3.09497
lowerneck -9.81993 -7.35131 -0.26648
upperneck 5.21052 -10.3635 6.60655
head 3.73879 -4.8339 1.53935
lclavicle -3.4357e-14 -1.18923e-14 5.02207e-31
lhumerus -39.5706 -68.6475 121.378
lradius 72.6837 -0 0
lwrist 24.1931 0 0
lhand -5.89346 2.83701 0.0307544
lfingers 7.12502 -0 0
lthumb 19.9339 31.824 0.0267191
rclavicle -3.4357e-14 -1.18923e-14 5.02207e-31
rhumerus -34.5736 -2.57702 -74.545
rradius 67.2586 -0 0
rwrist -21.7991 0 0
rhand -29.5262 -44.5898 -0.0191647
rfingers 7.12502 -0 0
rthumb -2.85985 -74.5498 -0.0185195
647
root 5.55859 16.3495 -2.59984 16.7399 8.84213 -0.112494
lfemur -16.7066 23.4934 -27.8036
ltibia 36.2534 -0 0
lfoot -36.5158 12.2842 -0.000512686
ltoes 21.3817 -0 0
rfemur -59.9951 -28.8201 33.4383
rtibia 67.2193 -0 0
rfoot -6.33429 -3.29962 0.0677559
rtoes 2.02106 -0 0
lowerback -0.676179 -3.92979 -5.45139
upperback -1.91874 -5.25712 -0.00450976
thorax -1.11081 -2.56063 3.02747
lowerneck -9.78554 -7.33735 -0.351919
upperneck 4.62733 -10.3079 6.82472
head 3.58392 -4.82091 1.64429
lclavicle -3.5362e-14 -1.07955e-14 3.87375e-31
lhumerus -40.8259 -69.3518 122.819
lradius 72.8136 -0 0
lwrist 24.4058 0 0
lhand -5.62666 3.08994 0.0237209
lfingers 7.12502 -0 0
lthumb 20.1905 32.0524 0.0206086
rclavicle -3.5362e-14 -1.07955e-14 3.87375e-31
rhumerus -36.5533 -3.40014 -75.1321
rradius 65.3313 -0 0
rwrist -20.2546 0 0
rhand -29.4841 -45.5862 -0.0147777
rfingers 7.12502 -0 0
rthumb -2.81918 -75.5469 -0.0142803
648
root 5.54624 16.3226 -2.54578 17.0931 7.82592 0.0557445
lfemur -16.9365 23.8912 -28.176
ltibia 36.4824 -0 0
lfoot -36.7167 12.2897 -0.000359579
ltoes 21.0384 -0 0
rfemur -60.8872 -29.3178 34.3853
rtibia 67.4759 -0 0
rfoot -7.00988 -3.51552 0.0475105
rtoes 2.34597 -0 0
lowerback -0.647706 -3.96465 -5.59605
upperback -1.88199 -5.30628 -0.139702
thorax -1.08481 -2.58545 2.96868
lowerneck -9.75561 -7.32516 -0.426313
upperneck 4.11974 -10.2578 7.0142
head 3.44907 -4.80936 1.73565
lclavicle -3.62372e-14 -9.84029e-15 2.71702e-31
lhumerus -41.9951 -69.9555 124.149
lradius 72.9268 -0 0
lwrist 24.591 0 0
lhand -5.39438 3.31014 0.0166375
lfingers 7.12502 -0 0
lthumb 20.414 32.2513 0.014454
rclavicle -3.62372e-14 -9.84029e-15 2.71702e-31
rhumerus -38.2718 -4.13306 -75.6204
rradius 63.653 -0 0
rwrist -18.9095 0 0
rhand -29.4475 -46.4539 -0.0103619
rfingers 7.12502 -0 0
rthumb -2.78383 -76.4151 -0.0100131
649
root 5.53606 16.3005 -2.5012 17.3816 6.98717 0.189433
lfemur -17.1288 24.2182 -28.4853
ltibia 36.6712 -0 0
lfoot -36.8824 12.2943 -0.000218788
ltoes 20.7553 -0 0
rfemur -61.6331 -29.7184 35.1763
rtibia 67.6875 -0 0
rfoot -7.56685 -3.69334 0.0289043
rtoes 2.61393 -0 0
lowerback -0.624156 -3.99334 -5.71536
upperback -1.85159 -5.34676 -0.251227
thorax -1.06335 -2.60589 2.92018
lowerneck -9.73094 -7.31507 -0.487661
upperneck 3.70132 -10.2152 7.1701
head 3.33788 -4.79968 1.81097
lclavicle -3.6959e-14 -9.05253e-15 1.65325e-31
lhumerus -43.0162 -70.4459 125.303
lradius 73.0201 -0 0
lwrist 24.7438 0 0
lhand -5.20281 3.49175 0.0101233
lfingers 7.12502 -0 0
lthumb 20.5982 32.4153 0.00879511
rclavicle -3.6959e-14 -9.05253e-15 1.65325e-31
rhumerus -39.6856 -4.74828 -76.0067
rradius 62.2687 -0 0
rwrist -17.8002 0 0
rhand -29.4173 -47.1696 -0.00630271
rfingers 7.12502 -0 0
rthumb -2.75473 -77.1312 -0.00609054
650
root 5.52838 16.2838 -2.46756 17.5977 6.35362 0.287379
lfemur -17.2756 24.4644 -28.7201
ltibia 36.8137 -0 0
lfoot -37.0075 12.2977 -0.000103834
ltoes 20.5416 -0 0
rfemur -62.2023 -30.0147 35.7794
rtibia 67.8472 -0 0
rfoot -7.9872 -3.82743 0.0137164
rtoes 2.81618 -0 0
lowerback -0.606342 -4.01497 -5.80543
upperback -1.8286 -5.37728 -0.335421
thorax -1.04714 -2.62131 2.88357
lowerneck -9.71232 -7.30744 -0.533961
upperneck 3.38561 -10.1822 7.28754
head 3.25396 -4.79227 1.8678
lclavicle -3.75038e-14 -8.45796e-15 7.84644e-32
lhumerus -43.8232 -70.8113 126.21
lradius 73.0905 -0 0
lwrist 24.8591 0 0
lhand -5.05823 3.6288 0.00480445
lfingers 7.12502 -0 0
lthumb 20.7373 32.5391 0.00417412
rclavicle -3.75038e-14 -8.45796e-15 7.84644e-32
rhumerus -40.7509 -5.21883 -76.2884
rradius 61.2241 -0 0
rwrist -16.9629 0 0
rhand -29.3946 -47.7097 -0.00299074
rfingers 7.12502 -0 0
rthumb -2.7328 -77.6716 -0.00289006
651
root 5.52352 16.2733 -2.4463 17.7335 5.95324 0.34795
lfemur -17.369 24.6196 -28.8691
ltibia 36.9037 -0 0
lfoot -37.0865 12.2998 -2.73576e-05
ltoes 20.4066 -0 0
rfemur -62.5646 -30.1993 36.1631
rtibia 67.948 -0 0
rfoot -8.25276 -3.91209 0.00361384
rtoes 2.94395 -0 0
lowerback -0.59507 -4.02862 -5.86233
upperback -1.81405 -5.39654 -0.388619
thorax -1.03689 -2.63105 2.86044
lowerneck -9.70057 -7.30261 -0.563209
upperneck 3.18621 -10.1611 7.36164
head 3.20096 -4.78755 1.9037
lclavicle -3.78479e-14 -8.08233e-15 2.06743e-32
lhumerus -44.35 -71.0399 126.8
lradius 73.135 -0 0
lwrist 24.9319 0 0
lhand -4.9669 3.71538 0.00126589
lfingers 7.12502 -0 0
lthumb 20.8252 32.6173 0.00109981
rclavicle -3.78479e-14 -8.08233e-15 2.06743e-32
rhumerus -41.4231 -5.51874 -76.4619
rradius 60.564 -0 0
rwrist -16.4341 0 0
rhand -29.3803 -48.0509 -0.000787935
rfingers 7.12502 -0 0
rthumb -2.71896 -78.013 -0.00076141
652
root 5.52183 16.2696 -2.43889 17.7807 5.81363 0.36883
lfemur -17.4017 24.6737 -28.9211
ltibia 36.9351 0 0
lfoot -37.114 12.3006 0
ltoes 20.3595 0 0
rfemur -62.6914 -30.2631 36.2973
rtibia 67.9832 0 0
rfoot -8.34533 -3.94159 0
rtoes 2.98849 0 0
lowerback -0.591138 -4.03337 -5.88217
upperback -1.80897 -5.40325 -0.407164
thorax -1.03332 -2.63444 2.85238
lowerneck -9.69647 -7.30093 -0.573404
upperneck 3.11671 -10.1537 7.38745
head 3.18248 -4.7859 1.91621
lclavicle -3.79679e-14 -7.95139e-15 0
lhumerus -44.5367 -71.1192 127.009
lradius 73.1505 0 0
lwrist 24.9573 0 0
lhand -4.93506 3.74556 0
lfingers 7.12502 0 0
lthumb 20.8558 32.6446 0
rclavicle -3.79679e-14 -7.95139e-15 0
rhumerus -41.6572 -5.62375 -76.5216
rradius 60.334 0 0
rwrist -16.2497 0 0
rhand -29.3753 -48.1698 0
rfingers 7.12502 0 0
rthumb -2.71414 -798.132 0
653
root 5.52109 16.2671 -2.42182 17.7762 5.67742 0.370159
lfemur -17.4704 24.6916 -28.8712
ltibia 37.2157 -0 0
lfoot -36.8501 12.1993 -0.0369346
ltoes 20.2308 -0 0
rfemur -62.5751 -30.1839 36.2393
rtibia 67.9782 -0 0
rfoot -8.44698 -3.96631 0.00332763
rtoes 2.98384 -0 0
lowerback -0.59257 -4.04971 -5.84745
upperback -1.81023 -5.42481 -0.397466
thorax -1.03542 -2.64557 2.84302
lowerneck -9.70024 -7.28164 -0.567096
upperneck 3.10769 -10.126 7.3561
head 3.17708 -4.77347 1.90669
lclavicle -3.7617e-14 -7.94353e-15 -3.62829e-33
lhumerus -44.2924 -71.1468 126.744
lradius 73.2364 -0 0
lwrist 24.9768 0 0
lhand -4.98076 3.71995 0.00154289
lfingers 7.12502 -0 0
lthumb 20.8118 32.6229 0.00125697
rclavicle -3.7617e-14 -7.94353e-15 -3.62829e-33
rhumerus -41.7063 -5.68336 -76.3574
rradius 60.3724 -0 0
rwrist -16.2752 0 0
rhand -29.3631 -48.171 -1.93236e-05
rfingers 7.12502 -0 0
rthumb -2.70232 -78.1333 -2.02813e-05
